<svg width="605" height="534" viewBox="0 0 605 534" fill="none" xmlns="http://www.w3.org/2000/svg">
<path d="M356.428 261.434C344.024 271.897 348.088 295.225 361.717 287.438C375.347 279.651 381.211 273.947 395.19 269.445C403.993 264.847 430.439 266.016 428.939 247.03C427.451 228.027 401.78 238.474 391.714 242.56C381.661 246.661 366.406 255.105 356.428 261.434Z" fill="#6F4938"/>
<path d="M172.863 288.692C181.099 290.99 190.184 286.912 198.786 287.209C207.388 287.506 215.931 288.558 223.531 290.175C233.217 290.412 253.543 300.422 252.989 281.277C252.435 262.148 234.513 264.64 224.709 263.483C220.927 263.038 215.931 262.371 212.926 262C200.931 262 188.865 263.646 177.576 264.966C166.3 266.286 160.656 283.012 172.863 288.692Z" fill="#6F4B3A"/>
<path d="M297.741 312.218C291.874 312.218 285.713 314.621 279.741 315.218C278.351 316.578 274.931 319.808 272.991 320.468C263.94 329.766 274.853 343.87 279.741 352C284.741 360.3 293.74 360.67 300.5 365.5C311.48 373.34 301.5 388 287.491 392.968C274.005 399.226 259.852 399.153 246.741 392.218C238.761 388.008 243.511 378.51 237.741 371C231.971 363.49 218.5 368 218.5 381C221.47 390.346 231.054 396.653 237.741 403.218C245.553 409.675 263.104 407.596 265.5 419C267.45 428.33 274.121 438.368 279.741 446.218C287.491 454 290.5 455 297.741 459.5C316.181 465.483 342.738 454.909 354.741 439.218C359.761 431.518 364.491 423.038 364.741 413.218C365.277 392.168 382.582 380.186 393 363C397.52 355.56 397.34 334.56 385.5 337C373.66 339.44 377.78 357.02 374 365.5C370.22 373.98 363.5 379.782 354.741 382C348.741 382 337.5 383 332 381.5C320 378.5 321.5 363.5 329 362C342 353 366.721 330.808 347.741 315.218C335.941 309.428 311.021 312.218 297.741 312.218ZM329.741 401.218C336.041 401.698 342.431 400.858 348.741 401.218C348.441 410.288 348.231 419.828 342.741 427.218C333.821 439.218 308.091 453.188 294.741 442.218C289.121 437.598 285.951 434.288 281.821 428.138C272.801 414.673 292.001 405.878 303.741 403.218C304.591 403.028 306.241 401.388 307.741 402.218C310.251 409.788 303.701 433.888 317.411 431.888C331.131 429.888 322.131 408.608 323.741 400.218C325.621 400.688 328.671 399.158 329.741 401.218Z" fill="#6B493B"/>
<path d="M304.207 402.093C293.313 404.561 272.207 413.874 281 427C285.13 433.15 289.38 438.88 295 443.5C309.93 451.64 335.793 439.407 343.5 426C348.99 418.61 348.907 409.163 349.207 400.093C340.7 399.607 332.036 400.093 323.5 400.093C322.13 408.663 330.5 428.407 318.5 431.5C299.813 433.338 316 396 304.207 402.093Z" fill="#E9978B"/>
<ellipse cx="361" cy="216.5" rx="24" ry="18.5" fill="white"/>
<ellipse cx="234" cy="236.5" rx="24" ry="18.5" fill="white"/>
<path d="M155 460.5C155 493.361 121.018 526 86.5 526C51.9822 526 11 493.361 11 460.5C11 427.639 51.9822 397 86.5 397C121.018 397 155 427.639 155 460.5Z" fill="white"/>
<path d="M595 460.5C595 493.361 561.018 526 526.5 526C491.982 526 451 493.361 451 460.5C451 427.639 491.982 397 526.5 397C561.018 397 595 427.639 595 460.5Z" fill="white"/>
<path d="M417.5 73.5C428.5 60 440.501 49.4705 455.5 53C470.5 56.5295 481.65 84 482.5 109.5C483.351 135 482 152.5 477 180C455.5 155 404 136 384.5 122.5C397 96.5 406.501 87 417.5 73.5Z" fill="white"/>
<path d="M95.5 118C50 88 27 96.5 40.5 146.5C53.9999 196.5 58.0001 226.43 70 235C80.5 221.5 89 196 133.5 154.5C140 145.5 141 148 95.5 118Z" fill="white"/>
<path d="M367 101.091C362.04 107.381 358 116.5 350.5 116.5C344 114 346.45 110.56 340 106C285.87 92.55 224.57 99.3612 176 124.091C179.93 139.781 166.5 138.5 160 134.5C153.13 126.64 154.5 129.5 145.5 124.091C138.04 117.621 91.5 94.1602 75.5 86C67.01 81.67 65 81.5 52 77.5C46.5 75.5 40.5 75.5 39 76C39 76 33.6397 76.3796 30.5 79.0911C25.6985 83.2377 19.5855 91.1827 20 98.0911C20.24 101.621 18.98 104.291 18 107.091C18 122.82 15.2047 136.933 17.5 153C22.8882 190.718 37.1489 229.249 62.5 258.5C75.5 281.5 52 267 52 286C50 294.409 47.99 305.65 47.5 314C47.01 322.35 48.5 330.5 49 338.841C50.5 348.5 50.5 359 53 361.091C66.5 352 76.5 345.5 94 347.091C110.46 347.871 121.41 356.25 136 360.5C152 363.7 175.14 366.601 191 362.091C206.87 357.591 217.11 350.231 228.75 338.841C240.39 327.451 256.21 329.59 270 323C277 317.5 283 315.5 283 315.5C294.402 313.6 305.219 311.5 317 311.5C327 311.5 323 311.5 338.5 312.5C347.585 314.066 348.5 316 348.5 316C361.5 316 366.5 313.5 374.5 313.5C382.36 314.46 388.48 318.88 396 323C403.51 327.13 413.15 330.64 421.25 335C429.35 339.36 440.12 339.74 449.5 342.5C458.88 345.26 471.55 345.84 482 346C492.45 346.16 505.26 345.1 514.5 342.5C523.75 339.91 531.6 335.18 541 335C541.949 335 539.052 299.188 539 298.5C538.3 289.3 534.99 281.18 532 273C529 264.83 527.7 257.07 524 249.5C518.648 238.536 510.777 212.539 496.5 211.5C486.46 210.78 490.33 198.13 494 191.5C497.68 184.87 499.28 172.9 500 165C505 137 506.977 111 498 81C495.22 71.71 491.99 60.82 489.5 51.5C485.359 36 473.5 14 456 19.0911C436.16 23.2011 421 41.4311 406.25 55.3411C391.5 69.2411 379.31 85.5011 367 101.091ZM466 62.0911C467.54 64.8011 469.15 69.0211 470 72.0911C483.12 104.341 484 143.5 476.5 178C470.5 173.5 471.63 173.159 466 168.5C460.61 164.04 459.52 163.09 454 159C448.48 154.9 440.675 148.011 435 144.5C424.75 138.159 412.035 132.055 406.5 129.5C400 126.5 391.5 124 388.5 117.5C388.29 111.77 394.5 104.5 398.31 99.3911C402.07 94.3486 407.62 88.1711 411.75 82.8411C415.88 77.5111 421.05 72.4211 426.25 67.3411C431.45 62.2511 436.87 57.3811 444.03 55.1211C451.18 52.8511 462.17 53.9711 466 62.0911ZM59.5 105C74.1198 110.221 77 111.5 85 115C94.5038 119.158 95.72 120.12 103 125C110.27 129.89 113 132.5 122.25 139.841C138.148 152.458 136.97 153.341 128.25 158.341C113 167.085 104.42 180.329 94.5 193.5C88.6035 201.329 85.5 208.5 81.08 217.171C76.6599 225.842 75.5 231.5 68 231.5C62.5 225 59 216 55.5 203C52 190 49.7516 182.339 47.5 173C43.5 156.409 43.15 156.05 41.5 145.5C39.85 134.95 40 127.5 41.5 115C43.88 103.15 45.5 100 59.5 105ZM369 202.091C383.05 205.361 374.89 223.731 365.77 229.861C356.65 235.991 338.96 232.821 340 219.091C341.04 205.361 358.22 199.581 369 202.091ZM240 219.091C250.93 221.511 260.91 238.871 249.75 245.841C238.59 252.811 225.8 253.101 217.25 239.841C208.7 226.581 225.51 215.881 240 219.091ZM385 269.5C378 274 365.77 285.091 363.5 276.5C361.215 267.853 374.909 257.905 384 252.5C402.5 241.5 417.323 243 420 248C422.677 253 416 255.5 406.5 258C397.798 262.095 392 265 385 269.5ZM213 265C228.38 265 251.088 272.5 249.75 285.091C248.75 294.5 239 282.5 215 282.5C191 282.5 191.5 285.716 186 285.091C180.5 284.466 180 275.385 183.5 273.5C187 271.615 197.62 265 213 265Z" fill="#F5B970"/>
<path d="M349 316C362.8 328.93 346.5 349.258 334 358C327.88 362.28 324.5 361.879 323 370.5C322.42 379.02 327 380.5 334 381.889C340.5 382.5 347.44 381.889 354 381.889C354.9 381.889 356.13 382.089 357 381.889C368.5 376.5 370.493 373 375 362.889C378.78 354.409 373.16 339.329 385 336.889C396.84 334.449 397.51 354.439 392.99 361.879C388.48 369.319 384 376.5 376.5 385C358.5 404.5 366.5 433 343 450.5C329.5 456 316 463.5 300 459.889C291.72 455.879 284.37 451.989 278.75 444.139C273.13 436.289 267.93 429.239 265.98 419.909C263 411 257.5 409 243 405.889C233.5 400 226.76 394.179 220.23 383.659C213.7 373.149 232.654 359 239 374.889C242.503 383.659 240.5 390.579 248.5 393C251.09 394.37 257.22 396.61 260 397.5C270.59 400.89 283.44 394.829 292.69 390.579C301.95 386.339 311.12 374.569 302 365.889C295.24 361.059 284.75 359.439 279.75 351.139C274.76 342.839 266.68 335.059 271 324.889C271.18 324.469 271.5 321.5 271.5 321.5C257.71 328.09 240.14 327.61 228.5 339C216.86 350.39 206.87 357.5 191 362C175.14 366.51 154 363.089 138 359.889C122.25 356.739 111.24 348.58 94.5 347C77.76 345.42 65.23 351.79 52.5 361C52.5 361.96 53.2474 366.5 54 372C54.9579 379 54.231 379.889 57.5 387C59.7986 392 60.5 391.5 60.5 391.5C65 396.5 76.51 391.42 82 391.5C87.49 391.58 98.42 391.04 104.5 392.5C110.59 393.95 117.38 396 123 398C127.84 399.72 132.56 403.54 137 406.5C147 414.5 150.8 424 155 433C158.5 440.5 158 441.5 160 446.5C161.5 455 162 454 163 461.5C163.29 469.4 163.79 476.64 162 484H444C444.5 481 444.25 482.86 444 480C442.8 474.1 442 469 443.5 463.5C443.9 460.71 444.07 456.69 444.5 454C447.66 434.045 462.703 413.931 478 401.5C489.025 395.563 501 392 514 391C527 390 528.5 383.5 530.5 378.5C531.85 375.96 534.27 364.65 535 362C537.5 356 538 347.5 540 335C530.5 335.5 522.94 339.989 513.69 342.579C504.45 345.179 493.45 346.049 483 345.889C472.55 345.729 459.88 345.26 450.5 342.5C441.12 339.74 436.5 340 428 336.889C419.9 332.529 409.01 329.63 401.5 325.5C393.98 321.38 383.86 314.46 376 313.5C368.15 312.54 357 314.5 349 316Z" fill="#FBFAFA"/>
<path d="M439.928 5.9254C436.939 7.6046 434.05 9.46814 430.928 10.9254C404.053 27.7304 382.385 54.2562 363.158 79.1554C353.998 87.5 350 93.4759 337.928 91.9254C336.838 91.7854 336.538 91.0754 335.928 90.9254C330.898 90.4354 325.868 89.3654 320.928 88.9254C288.718 86.0954 256.208 86.2154 224.928 91.9254C207.128 95.1799 183.731 99.491 169 110.5C156.628 117.5 134.5 95.8727 123.928 90.9254C96.6119 78.1419 69.9905 60.7968 38.9284 59.9254C22.8884 59.4754 13.0384 71.4354 5.92843 83.9254C3.67843 89.6654 2.52843 95.6854 1.92843 101.925C0.418432 117.575 0.0584322 132.905 0.928432 148.925C1.25843 155.075 2.77843 160.945 3.92843 166.925C6.96007 182.662 11.0583 197.681 15.9284 212.925C18.6327 218.931 21.1536 223.656 23 230C25.15 234.28 28.02 237.91 30 242.5C32.98 249.41 42.38 258.88 44.5 266C44.5 273 38.8284 277.215 37.9384 283.935C37.0484 290.655 35.3184 299.715 34.9284 306.925C33.9453 325 34.7612 343.09 37 361C36.97 361.5 37.9284 364.425 37.9284 364.925C37.9284 376.309 45.5 386.794 45.5 398C40.5 400.5 39.4484 403.215 34.9284 402.925C20.0684 411.565 8.51843 420.735 3.92843 437.925C0.148432 452.085 -1.63157 467.315 1.92843 481.925C4.41843 492.115 12.2884 504.955 24.2584 507.595C40 507.595 43.28 519.01 54.5 525.5C65.73 531.99 76.48 525.75 88 530C89.86 530.43 92.5 531 98 532.5C111.572 530.5 117.75 526.075 128.678 519C132.948 513.6 133.64 509.32 139 505C141.95 502.62 144.428 501.5 147.928 499.5C150.517 498.021 154.835 497.332 157.5 496C252 496.198 441.672 496.988 443 496.995C456.928 499 462.5 505.5 469.928 513.925C470.488 515.415 471.108 517.585 471.928 518.925C474.168 522.025 479.918 527.005 482.928 528.925C486.788 530.775 490.778 531.965 494.928 532.925C500.118 533.505 505.708 532.925 510.928 532.925C521.225 532.925 534.503 532.317 544.928 530.925C556.168 527.625 569.5 518.845 571.928 508.925C577 510 582.5 507.925 587.928 504.925C595.768 498.485 601.078 489.315 602.928 479.925C608.398 452.105 598.958 414.375 569.928 403.925C559.578 400.195 558 398 546 394.5C537.5 391 551.447 361.612 552.928 350.925C554.928 336.5 554.206 321.48 552.928 306.925C550.106 275.295 536.967 241.319 519.928 214.925C515.448 209.425 508.198 203.995 509.928 196.925C516.272 171 517.928 142.513 517.928 114.925L513 83.5C506.981 52.407 507.5 42.5 487.928 14.9254C484.868 11.8654 481.138 8.7154 477.928 5.9254C467.735 -1.66003 450.77 -0.155235 439.928 5.9254ZM488.928 52.9254C491.418 62.2454 494.148 71.6354 496.928 80.9254C504.408 105.905 505.78 136 500.5 161.5C497.53 175.844 495.958 180.5 492.998 190.995C490.58 199.569 485.918 211.175 495.958 211.895C515.144 213.292 525.556 258.368 530.908 272.945C533.898 281.125 537.008 288.945 537.708 298.145C538.408 307.345 539.928 318.385 539.928 327.925C539.928 335.64 538.903 342.5 537.5 350.925C536.239 358.5 535.698 358.5 533.928 364.925C531.132 375.076 530.572 389.747 515.5 391C502.572 392.075 497.31 393.76 487.5 396.5C477.68 399.23 475 402 468.5 408.5C465 412 461.5 416.5 461.5 416.5C459.5 419.5 457.278 423.555 453.928 427.925C450.258 434.725 446.038 443.695 443.928 450.925C442.683 458.714 441.237 467.062 441.928 474.925C442.178 477.785 443 493.395 443 496.995C442.072 496.995 157.5 496 157.5 496C163.6 490.511 163.79 471.9 163.5 464C162.89 460.82 161.17 452.31 160.5 448.5C159.619 443.401 157.635 439.906 156 435C155.98 434.5 147.928 418.5 147.928 418.5C139.428 408 142.158 410.705 130.928 401.925C126.568 399.025 121.866 396.673 116.928 394.925C109.268 393.605 101.698 391.545 93.9284 390.925C84.3558 390.17 74.4588 391.915 64.9284 392.925C55.4652 393.925 53.5 372.879 53.5 364.925C53.5 362.925 52.5 361 52.5 361C50.225 349.625 48.9306 338.081 48 326.5C47.19 316.42 49.17 306.04 51 296.5C52.84 286.97 58.8411 278.326 64.9284 273C69.5 269 69.627 267.575 59 253C31.1992 214.872 13 167.845 18 111.845C20 102.541 21.2252 95.5884 22.9284 89.5C25 83.9254 28.5 80 32.5 78.8554C33 78.8754 35 77.5 35 77.5C46.5 76 44.5016 76.1446 51.5 77.5C56.5 78.8554 64.0784 80.9354 68.6684 83.1854C73.2584 85.4254 78.5584 88.6954 82.9284 90.9254C91.9384 94.0054 99.6684 99.3654 108.158 103.695C116.648 108.025 124.5 112.5 134.5 117.5C144.5 122.5 147.5 125.5 156.628 132.225C163.488 140.085 182 140 175.928 123.925C224.498 99.1954 284.798 92.4754 338.928 105.925C342.258 107.645 348 123.492 356.5 115C363.002 108.505 366.15 101.35 372 95.5C384.31 79.91 391.75 69.4 406.5 55.5C421.25 41.59 436.66 23.61 456.5 19.5C474.42 15.79 484.5 38.5 488.928 52.9254ZM106.928 406.925C122.866 407.563 136.033 425.516 140.928 438.925C143.518 446.015 147.518 454.315 147.928 461.925C149.308 470.395 148.748 477.745 143.928 484.925C140.368 492.705 132.478 494.515 128.678 484.175C124.868 473.845 111.528 481.825 116.188 489.665C120.838 497.515 127.888 501.655 121.628 509.625C115.358 517.595 113.818 519.765 101.928 520.925C90.0384 522.085 95.2384 510.505 90.6084 502.245C85.9784 493.995 73.2184 501.955 75.9284 511.925C78.6384 521.895 62.4684 518.095 55.8484 514.005C49.2184 509.915 45.5684 503.745 47.9284 494.925C48.9184 491.205 51.2084 485.775 48.1784 482.675C45.1384 479.585 38.0184 480.085 35.9284 483.925C34.8084 486.605 35.9484 490.445 33.9284 492.925C29.6684 498.155 20.4484 491.305 17.9284 485.925C11.6625 472.61 13.3442 457.49 17.9284 443.925C21.8484 419.255 51.9184 407.425 73.9284 405.925C82.3484 403.775 99.3084 400.735 106.928 406.925ZM535.928 405.925C544.238 407.215 552.098 409.965 559.928 412.925C585.888 422.745 594.598 448.865 589.928 474.925C589.358 483.295 584.068 493.305 574.928 494.925C569.548 495.875 568.418 489.985 567.148 484.705C565.888 479.425 556.408 479.855 554.928 484.925C554.399 489.114 555.928 500 555.928 507.925C554 516 548 516 540.848 518.845C533.5 520.915 523.248 518.555 526.928 507.925C530.608 497.295 516.875 496.5 515 504C513.5 510 515.831 521.262 506.918 520.915C496.334 520.504 488.696 518.449 482.928 508.925C478.728 501.995 481.808 497.855 486.928 491.925C487.678 490.765 488 490.346 490 487.675C495 481 476.948 478.005 473.678 487.675C470.408 497.335 457.248 486.995 456.928 479.925C449.218 459.045 463.158 439.835 475.178 422.175C487.198 404.505 516.488 402.895 535.928 405.925Z" fill="#6B493B"/>
</svg>
